<?xml version="1.0" encoding="iso-8859-1"?>
<!-- Generator: Adobe Illustrator 19.0.0, SVG Export Plug-In . SVG Version: 6.00 Build 0)  -->
<svg version="1.1" id="Layer_1" xmlns="http://www.w3.org/2000/svg" xmlns:xlink="http://www.w3.org/1999/xlink" x="0px" y="0px"
	 viewBox="0 0 512 512" style="enable-background:new 0 0 512 512;" xml:space="preserve">
<g>
	<g>
		<g>
			<path d="M401.084,381.107h0.013C401.097,380.798,401.088,380.954,401.084,381.107z"/>
			<path d="M427.773,453.16c8.294-7.66,13.052-18.527,13.052-29.819V342.24c0-4.153-3.365-7.518-7.518-7.518
				c-6.288,0-12.156,1.818-17.12,4.947v-60.203c0-4.153-3.365-7.518-7.518-7.518c-4.153,0-7.518,3.365-7.518,7.518l-0.055,101.641
				c-0.017,0.299-0.017,0.151-0.013,0h-1.013H110.928V114.702c0-4.153-3.365-7.518-7.518-7.518c-4.153,0-7.518,3.365-7.518,7.518
				V339.72c-4.981-3.159-10.879-4.998-17.2-4.998c-4.153,0-7.518,3.365-7.518,7.518v81.101c0,11.292,4.757,22.16,13.052,29.819
				l6.369,5.881v10.931h-1.492c-4.153,0-7.518,3.365-7.518,7.518v26.993c0,4.153,3.365,7.518,7.518,7.518h107.064
				c4.153,0,7.518-3.365,7.518-7.518v-26.993c0-4.098-3.279-7.422-7.355-7.51v-11.567l8.153-10.071
				c7.674-9.478,11.9-21.414,11.9-33.611v-18.588h79.237v18.588c0,12.195,4.226,24.131,11.9,33.61l8.153,10.072v11.567
				c-4.076,0.087-7.354,3.412-7.354,7.51v26.993c0,4.153,3.365,7.518,7.518,7.518h107.062c4.153,0,7.518-3.365,7.518-7.518v-26.993
				c0-4.153-3.365-7.518-7.518-7.518h-1.493v-10.93L427.773,453.16z M188.649,496.965H96.621v-11.958h1.492h44.521h46.014V496.965z
				 M201.347,414.731L201.347,414.731c-0.001,8.764-3.037,17.34-8.551,24.151l-9.828,12.139c-1.084,1.338-1.675,3.008-1.675,4.73
				v14.221h-38.659h-37.004v-14.221c0-2.098-0.876-4.1-2.417-5.523l-8.787-8.115c-5.222-4.822-8.217-11.664-8.217-18.773v-71.85
				c5.713,2.793,9.658,8.663,9.658,15.44v27.455c0,3.83,2.891,7.049,6.697,7.473c0.126,0.014,12.708,1.464,24.913,7.12
				c14.755,6.834,22.235,16.537,22.235,28.838c0,4.153,3.365,7.518,7.518,7.518c4.153,0,7.518-3.365,7.518-7.518
				c0-17.899-10.108-32.268-29.263-41.673h65.861V414.731z M415.379,496.965h-92.027v-11.958h90.534h1.492V496.965z
				 M417.574,442.113l-8.787,8.114c-1.542,1.423-2.418,3.425-2.418,5.523v14.221h-75.663v0V455.75c0-1.722-0.591-3.392-1.675-4.73
				l-9.828-12.139c-5.514-6.812-8.55-15.388-8.55-24.151v-18.588h65.856c-19.153,9.405-29.259,23.776-29.259,41.673
				c0,4.153,3.365,7.518,7.518,7.518c4.153,0,7.518-3.365,7.518-7.518c0-12.301,7.481-22.003,22.235-28.838
				c12.207-5.655,24.788-7.106,24.903-7.119c3.816-0.414,6.707-3.636,6.707-7.474v-4.887c0.033-0.287,0.055-0.577,0.055-0.874
				v-23.036c0.482-6.203,4.27-11.491,9.603-14.097v71.85C425.79,430.449,422.795,437.291,417.574,442.113z"/>
		</g>
	</g>
</g>
<g>
	<g>
		<path d="M408.67,0H103.411c-4.153,0-7.518,3.365-7.518,7.518v82.126c0,4.152,3.365,7.518,7.518,7.518
			c4.153,0,7.518-3.365,7.518-7.518V15.035h290.224v239.372c0,4.153,3.365,7.518,7.518,7.518c4.153,0,7.518-3.365,7.518-7.518V7.518
			C416.187,3.365,412.822,0,408.67,0z"/>
	</g>
</g>
<g>
	<g>
		<path d="M340.719,42.942H173.59c-4.153,0-7.518,3.365-7.518,7.518v182.601c0,4.153,3.365,7.518,7.518,7.518h22.176H317.8h22.92
			c4.153,0,7.518-3.365,7.518-7.518V50.459C348.237,46.307,344.872,42.942,340.719,42.942z M203.284,225.543v-12.071
			c0-20.999,14.309-39.692,34.002-47.547l4.604,13.068l-7.458,25.929c-0.789,2.743,0.044,5.697,2.15,7.623l14.201,12.998H203.284z
			 M257.431,146.974c-0.182-0.004-0.365-0.014-0.547-0.016c-0.068-0.002-0.137-0.002-0.206,0c-0.182,0.002-0.365,0.012-0.547,0.016
			c-11.631-0.348-20.993-9.895-20.993-21.61v-5.509h0.002c12.343-1.56,20.837-6.762,26.219-11.57
			c3.692,4.495,9.246,9.201,17.067,11.131v5.948C278.425,137.079,269.063,146.626,257.431,146.974z M261.617,162.294l-3.152,8.95
			H255.1l-3.153-8.95c0.113-0.012,0.228-0.02,0.341-0.031c0.665-0.067,1.329-0.127,1.994-0.169c0.582-0.036,1.17-0.054,1.756-0.071
			c0.249,0.005,0.494,0.019,0.744,0.019s0.495-0.014,0.744-0.019c0.587,0.017,1.174,0.035,1.757,0.071
			c0.661,0.042,1.32,0.101,1.981,0.168C261.38,162.273,261.499,162.282,261.617,162.294z M278.388,103.343
			c-6.156-3.396-8.867-10.062-9.001-10.4c-1.043-2.753-3.595-4.643-6.532-4.837c-2.942-0.194-5.717,1.34-7.115,3.931
			c-0.062,0.115-5.585,10.012-20.602,12.632v-4.398c0-11.927,9.7-21.632,21.624-21.642c11.928,0.01,21.627,9.714,21.627,21.642
			V103.343z M250.168,204.599l5.269-18.32h2.689l5.269,18.32l-6.615,6.053L250.168,204.599z M310.281,225.543h-47.499l14.202-12.999
			c2.106-1.927,2.939-4.879,2.149-7.623l-7.458-25.929l4.604-13.068c19.693,7.854,34.002,26.547,34.002,47.547V225.543z
			 M333.202,225.543h-7.884v-12.071c0-27.132-18.265-51.282-43.403-61.43c7.101-6.693,11.546-16.173,11.546-26.678v-25.093
			c0-20.224-16.454-36.678-36.679-36.678c-0.006,0-0.012,0.001-0.019,0.001c-0.006,0-0.012-0.001-0.018-0.001
			c-20.224,0-36.678,16.454-36.678,36.678v12.547c0,0.249,0.014,0.494,0.037,0.738v11.809c0,10.505,4.445,19.985,11.546,26.678
			c-25.138,10.148-43.402,34.299-43.402,61.431v12.071h-7.141V57.977h152.095V225.543z"/>
	</g>
</g>
<g>
	<g>
		<path d="M340.719,300.318H172.744c-4.153,0-7.518,3.365-7.518,7.518c0,4.153,3.365,7.518,7.518,7.518h167.975
			c4.153,0,7.518-3.365,7.518-7.518C348.237,303.683,344.872,300.318,340.719,300.318z"/>
	</g>
</g>
<g>
	<g>
		<path d="M340.719,264.934H172.744c-4.153,0-7.518,3.365-7.518,7.518c0,4.152,3.365,7.518,7.518,7.518h167.975
			c4.153,0,7.518-3.366,7.518-7.518C348.237,268.299,344.872,264.934,340.719,264.934z"/>
	</g>
</g>
<g>
	<g>
		<path d="M288.559,335.702H172.744c-4.153,0-7.518,3.365-7.518,7.518s3.365,7.518,7.518,7.518h115.815
			c4.153,0,7.518-3.365,7.518-7.518S292.712,335.702,288.559,335.702z"/>
	</g>
</g>
<g>
</g>
<g>
</g>
<g>
</g>
<g>
</g>
<g>
</g>
<g>
</g>
<g>
</g>
<g>
</g>
<g>
</g>
<g>
</g>
<g>
</g>
<g>
</g>
<g>
</g>
<g>
</g>
<g>
</g>
</svg>
