<?xml version="1.0" encoding="iso-8859-1"?>
<!-- Generator: Adobe Illustrator 19.0.0, SVG Export Plug-In . SVG Version: 6.00 Build 0)  -->
<svg version="1.1" id="Layer_1" xmlns="http://www.w3.org/2000/svg" xmlns:xlink="http://www.w3.org/1999/xlink" x="0px" y="0px"
	 viewBox="0 0 512 512" style="enable-background:new 0 0 512 512;" xml:space="preserve">
<rect x="103.413" y="7.518" style="fill:#EFE7E4;" width="305.256" height="381.104"/>
<rect x="388.622" y="7.518" style="fill:#D8D1D0;" width="20.047" height="381.104"/>
<rect x="89.1" y="477.49" style="fill:#EFE7E4;" width="107.061" height="26.993"/>
<path style="fill:#FFC89F;" d="M103.386,388.626h105.479v26.105c0,10.514-3.609,20.71-10.225,28.881l-9.827,12.139v21.739h-46.178
	H98.114v-21.739l-8.786-8.113c-6.779-6.261-10.635-15.068-10.635-24.296v-81.101l0,0c13.637,0,24.692,11.055,24.692,24.692v27.454
	c0,0,53.845,5.84,53.845,43.43"/>
<rect x="315.831" y="477.49" style="fill:#EFE7E4;" width="107.061" height="26.993"/>
<g>
	<rect x="176.124" y="477.49" style="fill:#D8D1D0;" width="20.047" height="26.993"/>
	<rect x="402.845" y="477.49" style="fill:#D8D1D0;" width="20.047" height="26.993"/>
</g>
<rect x="173.588" y="50.458" style="fill:#546F7A;" width="167.132" height="182.598"/>
<path style="fill:#FFC89F;" d="M256.783,154.523L256.783,154.523c16.039,0,29.16-13.122,29.16-29.16V100.27
	c0-16.039-13.122-29.16-29.16-29.16l0,0c-16.039,0-29.16,13.122-29.16,29.16v25.093
	C227.622,141.402,240.745,154.523,256.783,154.523z"/>
<path style="fill:#F7B081;" d="M256.783,71.11c-3.517,0-6.894,0.631-10.023,1.786c11.139,4.11,19.137,14.853,19.137,27.374v25.093
	c0,12.52-7.998,23.264-19.137,27.374c3.129,1.155,6.506,1.786,10.023,1.786c16.038,0,29.16-13.122,29.16-29.16V100.27
	C285.943,84.233,272.821,71.11,256.783,71.11z"/>
<path style="fill:#FFC89F;" d="M433.308,342.24c-13.637,0-24.692,11.055-24.692,24.692v21.693h-86.087h-19.392v26.105
	c0,10.514,3.609,20.71,10.225,28.882l9.828,12.139v21.739h46.177h44.521v-21.739l8.786-8.113
	c6.779-6.261,10.635-15.068,10.635-24.296L433.308,342.24L433.308,342.24z"/>
<g>
	<path style="fill:#F7B081;" d="M208.826,408.637h-85.365c-11.072,0-20.047-8.975-20.047-20.047l0,0h105.412V408.637z"/>
	<path style="fill:#F7B081;" d="M388.581,408.637h-85.47V388.59h105.517l0,0C408.628,399.66,399.653,408.637,388.581,408.637z"/>
</g>
<path style="fill:#68B9D8;" d="M256.783,233.061h-61.017v-19.59c0-32.2,28.821-58.556,61.017-58.997
	c32.197,0.44,61.017,26.798,61.017,58.997v19.59H256.783z"/>
<path style="fill:#3695B2;" d="M256.783,154.473c-3.39,0.046-6.738,0.396-10.023,0.993c27.917,5.078,50.994,29.194,50.994,58.003
	v19.59H317.8v-19.589C317.8,181.272,288.979,154.914,256.783,154.473z"/>
<path style="fill:#D3333C;" d="M263.787,178.761h-7.004h-7.004l-7.833-22.235c4.796-1.273,9.775-1.984,14.837-2.053
	c5.062,0.069,10.041,0.78,14.837,2.053L263.787,178.761z"/>
<polygon style="fill:#F2464F;" points="256.783,220.843 241.657,207 249.779,178.761 256.783,178.761 263.787,178.761 271.908,207 
	"/>
<path d="M427.774,453.16c8.294-7.66,13.052-18.527,13.052-29.819V342.24c0-4.153-3.365-7.518-7.518-7.518
	c-6.288,0-12.157,1.818-17.12,4.947v-60.203c0-4.153-3.365-7.518-7.518-7.518s-7.518,3.365-7.518,7.518v85.643
	c-0.034,0.603-0.055,1.211-0.055,1.823v14.176h-97.962h-94.272h-97.936V114.702c0-4.153-3.365-7.518-7.518-7.518
	c-4.153,0-7.518,3.365-7.518,7.518V339.72c-4.981-3.159-10.879-4.998-17.2-4.998c-4.153,0-7.518,3.365-7.518,7.518v81.101
	c0,11.292,4.757,22.16,13.052,29.819l6.369,5.881v10.931h-1.493c-4.153,0-7.518,3.365-7.518,7.518v26.993
	c0,4.153,3.365,7.518,7.518,7.518h107.064c4.153,0,7.518-3.365,7.518-7.518v-26.993c0-4.098-3.279-7.422-7.355-7.51v-11.567
	l8.153-10.071c7.674-9.478,11.9-21.414,11.9-33.611v-18.588h79.237v18.588c0,12.195,4.226,24.131,11.9,33.61l8.153,10.072v11.567
	c-4.076,0.087-7.354,3.412-7.354,7.51v26.993c0,4.153,3.365,7.518,7.518,7.518h107.062c4.153,0,7.518-3.365,7.518-7.518v-26.993
	c0-4.153-3.365-7.518-7.518-7.518h-1.492v-10.93L427.774,453.16z M188.649,496.965H96.621v-11.958h1.493h44.521h46.014V496.965z
	 M201.347,414.731c0,8.764-3.036,17.34-8.55,24.151l-9.828,12.139c-1.084,1.338-1.675,3.008-1.675,4.73v14.221h-38.659h-37.004
	v-14.221c0-2.098-0.876-4.1-2.417-5.523l-8.787-8.115c-5.222-4.822-8.217-11.664-8.217-18.773v-71.85
	c5.713,2.793,9.658,8.663,9.658,15.44v27.455c0,3.83,2.891,7.049,6.697,7.473c0.126,0.014,12.708,1.464,24.913,7.12
	c14.755,6.834,22.235,16.537,22.235,28.838c0,4.153,3.365,7.518,7.518,7.518c4.153,0,7.518-3.365,7.518-7.518
	c0-17.899-10.108-32.268-29.263-41.673h65.861v18.588H201.347z M415.38,496.965h-92.027v-11.958h90.534h1.493V496.965z
	 M330.707,469.971V455.75c0-1.722-0.591-3.392-1.675-4.73l-9.828-12.139c-5.514-6.812-8.55-15.388-8.55-24.151v-18.588h65.856
	c-19.153,9.405-29.259,23.776-29.259,41.673c0,4.153,3.365,7.518,7.518,7.518s7.518-3.365,7.518-7.518
	c0-12.301,7.481-22.003,22.235-28.838c12.207-5.655,24.788-7.106,24.903-7.119c3.816-0.414,6.707-3.636,6.707-7.474v-4.887
	c0.033-0.287,0.055-0.577,0.055-0.874v-23.036c0.482-6.203,4.27-11.491,9.603-14.097v71.85c0,7.109-2.995,13.951-8.216,18.773
	l-8.787,8.114c-1.542,1.423-2.418,3.425-2.418,5.523v14.221L330.707,469.971L330.707,469.971z"/>
<path d="M103.411,97.161c4.153,0,7.518-3.365,7.518-7.518V15.035h290.224v239.372c0,4.153,3.365,7.518,7.518,7.518
	s7.518-3.365,7.518-7.518V7.518c0-4.153-3.365-7.518-7.518-7.518H103.411c-4.153,0-7.518,3.365-7.518,7.518v82.126
	C95.893,93.795,99.258,97.161,103.411,97.161z"/>
<path d="M348.237,50.459c0-4.153-3.365-7.518-7.518-7.518H173.591c-4.153,0-7.518,3.365-7.518,7.518v182.601
	c0,4.153,3.365,7.518,7.518,7.518h22.176H317.8h22.92c4.153,0,7.518-3.365,7.518-7.518V50.459z M235.14,112.269
	c19.785-2.916,27.218-16.662,27.218-16.662s4.56,12.016,16.068,15.962v13.793c0,11.714-9.362,21.262-20.994,21.61
	c-0.182-0.004-0.365-0.014-0.547-0.016c-0.068-0.002-0.137-0.002-0.205,0c-0.182,0.002-0.365,0.012-0.547,0.016
	c-11.631-0.348-20.993-9.895-20.993-21.61v-13.094H235.14z M263.396,204.599l-6.615,6.053l-6.614-6.053l5.269-18.32h2.689
	L263.396,204.599z M258.465,171.244h-3.364l-3.153-8.95c0.113-0.012,0.228-0.02,0.341-0.031c0.665-0.067,1.329-0.127,1.994-0.169
	c0.582-0.036,1.17-0.054,1.756-0.071c0.249,0.005,0.494,0.019,0.744,0.019c0.25,0,0.495-0.014,0.744-0.019
	c0.587,0.017,1.174,0.035,1.757,0.071c0.661,0.042,1.32,0.101,1.981,0.168c0.117,0.011,0.237,0.02,0.354,0.032L258.465,171.244z
	 M237.286,165.925l4.604,13.068l-7.457,25.929c-0.789,2.743,0.044,5.697,2.15,7.623l14.201,12.998h-47.499v-12.071
	C203.284,192.472,217.593,173.78,237.286,165.925z M262.782,225.543l14.202-12.998c2.106-1.927,2.939-4.879,2.149-7.623
	l-7.457-25.929l4.604-13.068c19.693,7.854,34.002,26.547,34.002,47.547v12.071H262.782z M333.202,225.543h-7.884v-12.071
	c0-27.132-18.265-51.282-43.403-61.43c7.101-6.693,11.546-16.173,11.546-26.678v-25.093c0-20.224-16.454-36.678-36.679-36.678
	c-20.224,0-36.678,16.454-36.678,36.678v25.093c0,10.505,4.445,19.985,11.546,26.678c-25.138,10.148-43.402,34.299-43.402,61.431
	v12.071h-7.141V57.977h152.095V225.543z"/>
<path d="M348.237,307.836c0-4.153-3.365-7.518-7.518-7.518H172.745c-4.153,0-7.518,3.365-7.518,7.518s3.365,7.518,7.518,7.518
	H340.72C344.872,315.354,348.237,311.989,348.237,307.836z"/>
<path d="M340.72,264.934H172.745c-4.153,0-7.518,3.365-7.518,7.518c0,4.152,3.365,7.518,7.518,7.518H340.72
	c4.153,0,7.518-3.366,7.518-7.518C348.237,268.299,344.872,264.934,340.72,264.934z"/>
<path d="M172.745,335.702c-4.153,0-7.518,3.365-7.518,7.518c0,4.153,3.365,7.518,7.518,7.518h115.815
	c4.153,0,7.518-3.365,7.518-7.518c0-4.153-3.365-7.518-7.518-7.518H172.745z"/>
<g>
</g>
<g>
</g>
<g>
</g>
<g>
</g>
<g>
</g>
<g>
</g>
<g>
</g>
<g>
</g>
<g>
</g>
<g>
</g>
<g>
</g>
<g>
</g>
<g>
</g>
<g>
</g>
<g>
</g>
</svg>
